<?xml version="1.0" encoding="utf-8"?>
<!-- Generator: Adobe Illustrator 22.0.1, SVG Export Plug-In . SVG Version: 6.00 Build 0)  -->
<svg version="1.1" id="Layer_1" xmlns="http://www.w3.org/2000/svg" xmlns:xlink="http://www.w3.org/1999/xlink" x="0px" y="0px"
	 viewBox="0 0 841.9 595.3" style="enable-background:new 0 0 841.9 595.3;" xml:space="preserve">
<style type="text/css">
	.st0{fill:none;}
	.st1{fill:#25408F;}
	.st2{fill:none;stroke:#FFFFFF;stroke-width:1.454;stroke-miterlimit:5.816;}
</style>
<g>
	<rect x="56.2" y="162.7" class="st0" width="708.6" height="211.3"/>
	<path class="st1" d="M341.6,250.5c-16.8,0-19.6-7.8-8.6-23.3l16.6-23.3c7.4-13.5,25.8-20,55.2-19.6H491h74.5l-13.5,21.5h-69.3
		h-20.9h-42.9c-11,0-19.4,2.5-25.1,7.4l-11.7,15.3h122.1c19.6,0,24.7,7.5,15.3,22.4l-14.1,22.4c-9.4,14.9-33.4,22.4-72.1,22.4h-85.3
		l-64.7-0.3l19-21.5h68.7l69.3,0.3c6.5-0.6,11.9-3,15.9-7.1c7-7.4,11.3-12.9,12.9-16.6H341.6z"/>
	<path class="st1" d="M719,373.7v-34.1c0-1.3,0.2-2.2,0.6-2.9c0.4-0.6,1.1-0.9,1.9-0.9c0.8,0,1.5,0.3,1.9,0.9
		c0.4,0.6,0.6,1.6,0.6,2.9v34.1h17.7v-34.1c0-1.3,0.2-2.2,0.6-2.9c0.4-0.6,1.1-0.9,1.9-0.9c0.8,0,1.5,0.3,1.9,0.9
		c0.4,0.6,0.6,1.6,0.6,2.9v34.1h18v-35c0-4.6-1.1-8.1-3.2-10.6c-2.2-2.5-5.2-3.7-9.2-3.7c-2.5,0-4.9,0.4-7,1.2
		c-2.1,0.8-4.1,2-5.8,3.6c-1.2-1.6-2.6-2.8-4.3-3.6c-1.7-0.8-3.6-1.2-5.6-1.2c-2,0-3.9,0.3-5.8,0.9c-1.9,0.6-3.7,1.4-5.4,2.5v-3.1
		h-17.3v48.9H719z M677.4,324.7v34.1c0,1.3-0.2,2.2-0.6,2.9c-0.4,0.6-1,0.9-1.9,0.9c-0.8,0-1.5-0.3-1.9-0.9
		c-0.4-0.6-0.6-1.5-0.6-2.8v-34.1h-18.1v35c0,4.7,1.1,8.2,3.2,10.7c2.2,2.4,5.3,3.7,9.3,3.7c1.9,0,3.8-0.3,5.7-0.9
		c1.9-0.6,3.7-1.4,5.5-2.6v3.1h17.6v-48.9H677.4z M628.4,373.7v-34.1c0-1.3,0.2-2.2,0.6-2.9c0.4-0.6,1.1-0.9,1.9-0.9
		c0.8,0,1.5,0.3,1.9,0.9c0.4,0.6,0.6,1.6,0.6,2.9v4.6h17.2v-5.5c0-4.6-1-8.2-3.1-10.6c-2.1-2.4-5.1-3.7-9-3.7
		c-1.9,0-3.7,0.3-5.5,0.9c-1.8,0.6-3.5,1.4-5.2,2.5v-3.1h-17.6v48.9H628.4z M571.3,346.5c-2.9,1.2-4.9,2.6-6,4.3
		c-1.1,1.6-1.7,3.9-1.7,6.9v2c0,4.6,1.1,8.2,3.2,10.7c2.1,2.5,5.2,3.7,9.3,3.7c1.9,0,3.8-0.3,5.7-0.9c1.9-0.6,3.7-1.4,5.5-2.6v3.1
		h17.5v-37.9c0-4.1-0.9-7-2.7-8.7c-1.8-1.7-4.9-2.5-9.3-2.5h-16.9c-4.5,0-7.6,0.8-9.4,2.5c-1.8,1.7-2.7,4.6-2.7,8.7v3.5h17.6v-1.6
		c0-1.3,0.2-2.3,0.6-3c0.5-0.6,1.2-0.9,2.1-0.9c1,0,1.7,0.3,2.1,0.9c0.4,0.6,0.6,1.6,0.6,3v2.1L571.3,346.5z M586.2,362.5
		c-0.5,0.6-1.2,0.9-2.1,0.9c-0.9,0-1.6-0.3-2-1c-0.4-0.7-0.7-1.6-0.7-2.9v-1.1c0-1.4,0.2-2.5,0.7-3.3c0.5-0.8,1.3-1.5,2.4-2l2.4-1.2
		v7.6C586.9,360.9,586.7,361.9,586.2,362.5 M513.2,373.7v-34.1c0-1.3,0.2-2.2,0.6-2.9c0.4-0.6,1.1-0.9,1.9-0.9
		c0.9,0,1.5,0.3,1.9,0.9c0.4,0.6,0.6,1.6,0.6,2.9v34.1H536v-34.1c0-1.3,0.2-2.2,0.6-2.9c0.4-0.6,1.1-0.9,1.9-0.9
		c0.8,0,1.5,0.3,1.9,0.9c0.4,0.6,0.6,1.6,0.6,2.9v34.1h18v-35c0-4.6-1.1-8.1-3.2-10.6c-2.2-2.5-5.2-3.7-9.2-3.7
		c-2.5,0-4.9,0.4-7,1.2c-2.1,0.8-4.1,2-5.8,3.6c-1.2-1.6-2.6-2.8-4.3-3.6c-1.7-0.8-3.6-1.2-5.6-1.2c-2,0-3.9,0.3-5.8,0.9
		c-1.9,0.6-3.7,1.4-5.4,2.5v-3.1h-17.3v48.9H513.2z M444.2,373.7v-34.1c0-1.3,0.2-2.2,0.6-2.9c0.4-0.6,1.1-0.9,1.9-0.9
		c0.8,0,1.5,0.3,1.9,0.9c0.4,0.6,0.6,1.6,0.6,2.9v34.1H467v-34.1c0-1.3,0.2-2.2,0.6-2.9c0.4-0.6,1.1-0.9,1.9-0.9
		c0.8,0,1.5,0.3,1.9,0.9c0.4,0.6,0.6,1.6,0.6,2.9v34.1h18v-35c0-4.6-1.1-8.1-3.2-10.6c-2.2-2.5-5.2-3.7-9.2-3.7
		c-2.5,0-4.9,0.4-7,1.2c-2.1,0.8-4.1,2-5.8,3.6c-1.2-1.6-2.6-2.8-4.3-3.6c-1.7-0.8-3.6-1.2-5.6-1.2c-2,0-3.9,0.3-5.8,0.9
		c-1.9,0.6-3.7,1.4-5.4,2.5v-3.1h-17.3v48.9H444.2z M402.6,324.7v34.1c0,1.3-0.2,2.2-0.6,2.9c-0.4,0.6-1.1,0.9-1.9,0.9
		c-0.9,0-1.5-0.3-1.9-0.9c-0.4-0.6-0.6-1.5-0.6-2.8v-34.1h-18.1v35c0,4.7,1.1,8.2,3.2,10.7c2.1,2.4,5.3,3.7,9.3,3.7
		c1.9,0,3.8-0.3,5.7-0.9c1.9-0.6,3.7-1.4,5.5-2.6v3.1h17.6v-48.9H402.6z M374.8,356.7c0-3.4-0.7-5.9-2.2-7.7
		c-1.4-1.8-4.2-3.4-8.2-4.7l-7.9-2.8c-2.2-0.8-3.6-1.5-4.1-2.1c-0.6-0.6-0.8-1.5-0.8-2.5c0-0.8,0.2-1.4,0.7-2
		c0.5-0.5,1.1-0.8,1.8-0.8c0.8,0,1.5,0.3,1.9,0.9c0.4,0.6,0.6,1.6,0.6,2.9v1.2h18.2v-3.3c0-4.1-0.9-7-2.7-8.7
		c-1.8-1.7-4.9-2.5-9.4-2.5h-17.4c-4.5,0-7.6,0.8-9.4,2.5c-1.8,1.7-2.7,4.6-2.7,8.7v4.6c0,2.9,0.6,5.1,1.7,6.6
		c1.2,1.5,3.4,2.8,6.6,3.9l10.5,3.6c1.4,0.5,2.5,1.2,3.2,2c0.7,0.8,1,1.7,1,2.9v1.3c0,1.3-0.2,2.2-0.6,2.9c-0.4,0.6-1,0.9-1.9,0.9
		c-0.8,0-1.5-0.3-1.9-0.9c-0.4-0.6-0.6-1.5-0.6-2.8v-4.1h-18.3v6.1c0,4.2,0.9,7.1,2.7,8.7c1.8,1.6,4.9,2.4,9.3,2.4h17.8
		c4.5,0,7.6-0.8,9.4-2.5c1.8-1.7,2.7-4.6,2.7-8.7V356.7z"/>
	<path d="M294.6,346.5c-2.9,1.2-4.9,2.6-6,4.3c-1.1,1.6-1.7,3.9-1.7,6.9v2c0,4.6,1.1,8.2,3.2,10.7c2.1,2.5,5.2,3.7,9.3,3.7
		c1.9,0,3.8-0.3,5.7-0.9c1.9-0.6,3.7-1.4,5.5-2.6v3.1h17.5v-37.9c0-4.1-0.9-7-2.7-8.7c-1.8-1.7-4.9-2.5-9.3-2.5h-16.9
		c-4.5,0-7.6,0.8-9.4,2.5c-1.8,1.7-2.7,4.6-2.7,8.7v3.5h17.6v-1.6c0-1.3,0.2-2.3,0.6-3c0.5-0.6,1.2-0.9,2.1-0.9c1,0,1.7,0.3,2.1,0.9
		c0.4,0.6,0.6,1.6,0.6,3v2.1L294.6,346.5z M309.5,362.5c-0.4,0.6-1.1,0.9-2.1,0.9c-0.9,0-1.6-0.3-2-1c-0.4-0.7-0.7-1.6-0.7-2.9v-1.1
		c0-1.4,0.2-2.5,0.7-3.3c0.5-0.8,1.3-1.5,2.4-2l2.4-1.2v7.6C310.2,360.9,309.9,361.9,309.5,362.5 M236.5,373.7v-34.1
		c0-1.3,0.2-2.2,0.6-2.9c0.4-0.6,1.1-0.9,1.9-0.9c0.8,0,1.5,0.3,1.9,0.9c0.4,0.6,0.6,1.6,0.6,2.9v34.1h17.7v-34.1
		c0-1.3,0.2-2.2,0.6-2.9c0.4-0.6,1.1-0.9,1.9-0.9c0.8,0,1.5,0.3,1.9,0.9c0.4,0.6,0.6,1.6,0.6,2.9v34.1h18v-35
		c0-4.6-1.1-8.1-3.2-10.6c-2.2-2.5-5.2-3.7-9.2-3.7c-2.5,0-4.9,0.4-7,1.2c-2.1,0.8-4.1,2-5.8,3.6c-1.2-1.6-2.6-2.8-4.3-3.6
		c-1.7-0.8-3.6-1.2-5.6-1.2c-2,0-3.9,0.3-5.8,0.9c-1.9,0.6-3.7,1.4-5.4,2.5v-3.1h-17.3v48.9H236.5z M167.5,373.7v-34.1
		c0-1.3,0.2-2.2,0.6-2.9c0.4-0.6,1.1-0.9,1.9-0.9c0.8,0,1.5,0.3,1.9,0.9c0.4,0.6,0.6,1.6,0.6,2.9v34.1h17.7v-34.1
		c0-1.3,0.2-2.2,0.6-2.9c0.4-0.6,1.1-0.9,1.9-0.9c0.8,0,1.5,0.3,1.9,0.9c0.4,0.6,0.6,1.6,0.6,2.9v34.1h18v-35
		c0-4.6-1.1-8.1-3.2-10.6c-2.2-2.5-5.2-3.7-9.2-3.7c-2.5,0-4.9,0.4-7,1.2c-2.1,0.8-4.1,2-5.8,3.6c-1.2-1.6-2.6-2.8-4.3-3.6
		c-1.7-0.8-3.6-1.2-5.6-1.2c-2,0-3.9,0.3-5.8,0.9c-1.9,0.6-3.7,1.4-5.4,2.5v-3.1h-17.3v48.9H167.5z M125.8,324.7v34.1
		c0,1.3-0.2,2.2-0.6,2.9c-0.4,0.6-1,0.9-1.9,0.9c-0.9,0-1.5-0.3-1.9-0.9c-0.4-0.6-0.6-1.5-0.6-2.8v-34.1h-18.1v35
		c0,4.7,1.1,8.2,3.2,10.7c2.1,2.4,5.3,3.7,9.3,3.7c1.9,0,3.8-0.3,5.7-0.9c1.9-0.6,3.7-1.4,5.5-2.6v3.1H144v-48.9H125.8z M98,356.7
		c0-3.4-0.7-5.9-2.2-7.7c-1.4-1.8-4.2-3.4-8.2-4.7l-7.9-2.8c-2.2-0.8-3.6-1.5-4.1-2.1c-0.6-0.6-0.8-1.5-0.8-2.5c0-0.8,0.2-1.4,0.7-2
		c0.5-0.5,1.1-0.8,1.8-0.8c0.8,0,1.5,0.3,1.9,0.9c0.4,0.6,0.6,1.6,0.6,2.9v1.2H98v-3.3c0-4.1-0.9-7-2.7-8.7
		c-1.8-1.7-4.9-2.5-9.4-2.5H68.6c-4.5,0-7.6,0.8-9.4,2.5c-1.8,1.7-2.7,4.6-2.7,8.7v4.6c0,2.9,0.6,5.1,1.7,6.6
		c1.2,1.5,3.4,2.8,6.6,3.9l10.5,3.6c1.4,0.5,2.5,1.2,3.2,2c0.7,0.8,1,1.7,1,2.9v1.3c0,1.3-0.2,2.2-0.6,2.9c-0.4,0.6-1,0.9-1.9,0.9
		c-0.8,0-1.5-0.3-1.9-0.9c-0.4-0.6-0.6-1.5-0.6-2.8v-4.1H56.2v6.1c0,4.2,0.9,7.1,2.7,8.7c1.8,1.6,4.9,2.4,9.3,2.4H86
		c4.5,0,7.6-0.8,9.4-2.5c1.8-1.7,2.7-4.6,2.7-8.7V356.7z"/>
	<path d="M352.7,232.2c-16.8,0-19.6-7.8-8.6-23.3l16.6-23.3c7.4-13.5,25.8-20,55.2-19.6h86.2h74.5l-13.5,21.5h-69.3H473H430
		c-11,0-19.4,2.5-25.2,7.4l-11.7,15.3h122.1c19.6,0,24.7,7.5,15.3,22.4l-14.1,22.4c-9.4,14.9-33.4,22.4-72.1,22.4h-85.3l-64.7-0.3
		l19-21.5h68.7l69.3,0.3c6.5-0.6,11.9-3,15.9-7.1c7-7.4,11.3-12.9,12.9-16.6H352.7z"/>
	<path class="st2" d="M352.7,232.2c-16.8,0-19.6-7.8-8.6-23.3l16.6-23.3c7.4-13.5,25.8-20,55.2-19.6h86.2h74.5l-13.5,21.5h-69.3H473
		H430c-11,0-19.4,2.5-25.2,7.4l-11.7,15.3h122.1c19.6,0,24.7,7.5,15.3,22.4l-14.1,22.4c-9.4,14.9-33.4,22.4-72.1,22.4h-85.3
		l-64.7-0.3l19-21.5h68.7l69.3,0.3c6.5-0.6,11.9-3,15.9-7.1c7-7.4,11.3-12.9,12.9-16.6H352.7z"/>
</g>
</svg>
